<svg width="1490" height="431" viewBox="0 0 1490 431" fill="none" xmlns="http://www.w3.org/2000/svg">
<g style="mix-blend-mode:overlay">
<path fill-rule="evenodd" clip-rule="evenodd" d="M1077.58 4.32285C1076.98 11.8446 1073.68 18.8403 1068.43 23.7712C1063.17 28.7019 1056.39 31.1638 1049.56 30.6152C1042.73 30.0667 1036.43 26.5526 1032.03 20.8461C1027.64 15.1394 1025.51 7.70792 1026.11 0.186186C1026.11 0.186186 1040.32 7.57204 1051.85 2.25452C1063.38 -3.06302 1077.58 4.32285 1077.58 4.32285ZM1084.64 24.2982C1083.01 27.2004 1081.12 29.8022 1079.05 31.9589C1077.78 32.997 1076.71 33.9798 1075.71 34.8913C1070.49 39.6692 1067.4 42.4891 1049.68 41.0651C1031.2 39.5793 1029.05 36.8885 1023.81 30.3371C1023.07 29.4115 1022.27 28.4089 1021.36 27.3217C1013.95 18.5393 1014.2 10.3163 1015.03 0L1022.38 0.590952C1021.19 15.2856 1026.95 22.8529 1026.95 22.8529C1026.95 22.8529 1031.86 32.6772 1050.24 34.1546C1068.62 35.632 1073.93 26.6293 1073.93 26.6293C1073.93 26.6293 1081.09 16.6195 1082.07 4.51802L1089.77 5.13745C1090.75 4.92022 1091.76 4.81889 1092.77 4.84018C1095.34 4.89387 1097.82 5.72374 1099.86 7.20661C1101.89 8.68952 1103.37 10.7463 1104.08 13.0717C1104.78 15.3971 1104.67 17.8672 1103.76 20.1151C1102.86 22.363 1101.2 24.269 1099.04 25.55C1096.89 26.831 1094.34 27.4189 1091.78 27.2263C1089.23 27.0337 1086.8 26.0707 1084.85 24.4807C1084.78 24.4206 1084.71 24.3598 1084.64 24.2982ZM1089.52 11.4387C1090.46 10.8787 1091.57 10.591 1092.7 10.6146C1093.94 10.6406 1095.14 11.043 1096.13 11.762C1097.12 12.481 1097.83 13.4783 1098.18 14.6058C1098.52 15.7333 1098.46 16.931 1098.03 18.0209C1097.59 19.1108 1096.78 20.035 1095.74 20.6561C1094.69 21.2773 1093.46 21.5623 1092.22 21.4689C1090.98 21.3756 1089.8 20.9087 1088.86 20.1377C1088.25 19.6417 1087.76 19.0369 1087.42 18.3642C1088.28 16.1384 1088.99 13.8141 1089.52 11.4387ZM1015.67 43.5511L1082.78 48.9451C1084.04 49.0467 1084.97 50.29 1084.86 51.7222C1084.74 53.1544 1083.63 54.233 1082.36 54.1315L1015.25 48.7375C1013.98 48.6359 1013.05 47.3926 1013.17 45.9604C1013.28 44.5282 1014.4 43.4496 1015.67 43.5511ZM1079.81 239.477C1079.08 243.961 1076.78 248.003 1073.39 250.713C1070 253.423 1065.81 254.579 1061.74 253.928C1057.67 253.276 1054.06 250.869 1051.69 247.237C1049.32 243.605 1048.4 239.046 1049.12 234.561C1049.12 234.561 1057.29 239.665 1064.46 237.019C1071.63 234.374 1079.81 239.477 1079.81 239.477ZM1083.09 251.796C1081.98 253.46 1080.72 254.932 1079.38 256.128C1078.56 256.691 1077.87 257.23 1077.23 257.73L1077.23 257.73C1073.87 260.35 1071.88 261.896 1061.32 260.203C1050.3 258.438 1049.14 256.722 1046.31 252.543C1045.91 251.953 1045.48 251.314 1044.98 250.618C1040.95 244.998 1041.49 240.076 1042.48 233.925L1046.86 234.628C1045.45 243.388 1048.54 248.201 1048.54 248.201C1048.54 248.201 1051.02 254.328 1061.98 256.083C1072.94 257.839 1076.56 252.688 1076.56 252.688C1076.56 252.688 1081.33 247.021 1082.49 239.806L1087.08 240.542C1087.68 240.458 1088.29 240.445 1088.9 240.506C1090.43 240.659 1091.88 241.274 1093.03 242.26C1094.18 243.246 1094.97 244.551 1095.29 245.979C1095.6 247.408 1095.42 248.885 1094.76 250.19C1094.11 251.496 1093.03 252.562 1091.67 253.228C1090.32 253.895 1088.76 254.127 1087.24 253.891C1085.71 253.654 1084.3 252.962 1083.21 251.916C1083.17 251.876 1083.13 251.836 1083.09 251.796ZM1086.63 244.311C1087.22 244.02 1087.9 243.899 1088.57 243.967C1089.32 244.041 1090.02 244.339 1090.58 244.817C1091.14 245.296 1091.52 245.928 1091.67 246.621C1091.82 247.313 1091.74 248.029 1091.42 248.662C1091.1 249.296 1090.58 249.812 1089.92 250.135C1089.26 250.459 1088.51 250.571 1087.77 250.457C1087.03 250.342 1086.35 250.006 1085.82 249.499C1085.48 249.173 1085.21 248.787 1085.04 248.367C1085.66 247.072 1086.2 245.711 1086.63 244.311ZM1040.79 260.087L1080.81 266.496C1081.56 266.617 1082.06 267.407 1081.92 268.261C1081.78 269.115 1081.06 269.709 1080.31 269.589L1040.29 263.179C1039.54 263.058 1039.04 262.268 1039.18 261.414C1039.32 260.56 1040.04 259.966 1040.79 260.087ZM675.565 74.9197C676.522 78.4824 676.155 82.2425 674.546 85.3731C672.936 88.5035 670.215 90.7479 666.983 91.6124C663.75 92.4768 660.269 91.8907 657.307 89.9828C654.345 88.0748 652.143 85.0015 651.187 81.4389C651.187 81.4389 658.941 82.5148 663.376 78.1793C667.811 73.8438 675.565 74.9197 675.565 74.9197ZM682.095 82.9629C681.824 84.565 681.382 86.0722 680.784 87.4039C680.37 88.0897 680.036 88.7181 679.727 89.301C678.106 92.3563 677.149 94.1596 668.756 96.4038C660 98.7453 658.568 97.8582 655.082 95.698C654.59 95.3929 654.056 95.0623 653.455 94.7118C648.601 91.8806 647.364 88.0538 646.052 83.1675L649.534 82.2362C651.403 89.1963 655.295 91.7393 655.295 91.7393C655.295 91.7393 659.171 95.4589 667.878 93.1307C676.584 90.8024 677.55 85.788 677.55 85.788C677.55 85.788 679.201 80.0076 677.662 74.2757L681.313 73.2995C681.726 73.0399 682.173 72.8283 682.645 72.6718C683.834 72.2771 685.113 72.2527 686.295 72.6022C687.476 72.9518 688.495 73.6566 689.202 74.6121C689.908 75.5676 690.264 76.7227 690.216 77.9061C690.168 79.0895 689.719 80.2381 688.935 81.1811C688.152 82.1242 687.076 82.8117 685.867 83.1414C684.659 83.4711 683.382 83.4254 682.226 83.0113C682.182 82.9956 682.139 82.9795 682.095 82.9629ZM682.229 76.2433C682.573 75.8304 683.034 75.5171 683.558 75.3433C684.134 75.152 684.755 75.1402 685.327 75.3096C685.9 75.4791 686.394 75.8208 686.737 76.2841C687.079 76.7474 687.252 77.3075 687.229 77.8813C687.205 78.4551 686.988 79.012 686.608 79.4692C686.228 79.9266 685.706 80.2599 685.12 80.4197C684.534 80.5796 683.915 80.5575 683.354 80.3567C682.994 80.2275 682.67 80.0288 682.402 79.7752C682.432 78.6096 682.376 77.4234 682.229 76.2433ZM653.502 103.116L685.291 94.6152C685.889 94.4551 686.522 94.8753 686.704 95.5536C686.887 96.232 686.549 96.9116 685.951 97.0717L654.162 105.572C653.563 105.732 652.931 105.312 652.748 104.634C652.566 103.955 652.904 103.276 653.502 103.116ZM262.877 150.77C264.618 157.254 263.95 164.097 261.021 169.794C258.091 175.491 253.14 179.576 247.257 181.149C241.373 182.723 235.039 181.656 229.648 178.184C224.257 174.711 220.25 169.118 218.509 162.634C218.509 162.634 232.622 164.592 240.693 156.702C248.765 148.812 262.877 150.77 262.877 150.77ZM274.761 165.408C274.268 168.324 273.463 171.067 272.374 173.49C271.62 174.738 271.014 175.882 270.451 176.943L270.451 176.943C267.5 182.503 265.759 185.785 250.485 189.869C234.549 194.131 231.943 192.516 225.599 188.585L225.599 188.585C224.703 188.029 223.732 187.428 222.638 186.79C213.803 181.637 211.552 174.673 209.164 165.78L215.502 164.085C218.903 176.752 225.986 181.38 225.986 181.38C225.986 181.38 233.04 188.15 248.886 183.912C264.731 179.675 266.489 170.549 266.489 170.549C266.489 170.549 269.493 160.029 266.693 149.598L273.336 147.821C274.089 147.349 274.903 146.964 275.761 146.679C277.924 145.96 280.254 145.916 282.403 146.552C284.553 147.188 286.408 148.471 287.694 150.21C288.979 151.949 289.627 154.051 289.539 156.205C289.452 158.358 288.635 160.449 287.209 162.165C285.784 163.881 283.826 165.133 281.626 165.733C279.426 166.333 277.102 166.25 274.998 165.496C274.919 165.467 274.84 165.438 274.761 165.408ZM275.004 153.178C275.63 152.427 276.47 151.857 277.422 151.541C278.471 151.192 279.601 151.171 280.643 151.479C281.685 151.788 282.585 152.41 283.208 153.253C283.832 154.096 284.145 155.115 284.103 156.16C284.061 157.204 283.664 158.217 282.973 159.05C282.282 159.882 281.333 160.488 280.266 160.779C279.199 161.07 278.072 161.03 277.052 160.665C276.396 160.43 275.807 160.068 275.318 159.606C275.373 157.485 275.272 155.326 275.004 153.178ZM222.724 202.085L280.577 186.614C281.666 186.323 282.818 187.088 283.149 188.322C283.481 189.557 282.866 190.794 281.777 191.085L223.924 206.555C222.835 206.847 221.683 206.082 221.351 204.847C221.02 203.613 221.634 202.376 222.724 202.085ZM135.737 384.493C134.965 391.161 131.82 397.279 126.996 401.5C122.171 405.722 116.061 407.701 110.011 407.003C103.96 406.305 98.4637 402.987 94.7313 397.778C90.9989 392.569 89.336 385.897 90.1083 379.229C90.1083 379.229 102.508 386.233 112.923 381.861C123.337 377.489 135.737 384.493 135.737 384.493ZM141.389 402.468C139.856 404.998 138.095 407.253 136.189 409.107C135.028 409.99 134.042 410.831 133.128 411.611L133.128 411.611C128.334 415.697 125.504 418.109 109.796 416.297C93.4075 414.406 91.5801 411.948 87.1307 405.962C86.5022 405.117 85.8212 404.201 85.0395 403.206C78.7246 395.17 79.1995 387.867 80.2588 378.722L86.7772 379.474C85.2683 392.501 90.1473 399.405 90.1473 399.405C90.1473 399.405 94.21 408.291 110.506 410.171C126.802 412.051 131.802 404.211 131.802 404.211C131.802 404.211 138.475 395.533 139.717 384.805L146.55 385.593C147.424 385.43 148.323 385.371 149.226 385.421C151.502 385.548 153.684 386.362 155.449 387.743C157.213 389.124 158.465 390.998 159.019 393.087C159.573 395.176 159.399 397.369 158.524 399.339C157.649 401.31 156.118 402.953 154.16 404.025C152.201 405.098 149.919 405.542 147.652 405.292C145.386 405.042 143.255 404.111 141.577 402.637C141.514 402.582 141.451 402.525 141.389 402.468ZM146.125 391.187C146.984 390.718 147.975 390.496 148.977 390.552C150.081 390.613 151.139 391.008 151.995 391.678C152.85 392.347 153.457 393.256 153.726 394.269C153.995 395.282 153.91 396.345 153.486 397.3C153.061 398.256 152.319 399.053 151.37 399.573C150.42 400.093 149.314 400.308 148.215 400.187C147.116 400.066 146.083 399.614 145.269 398.9C144.745 398.44 144.331 397.887 144.047 397.279C144.88 395.327 145.582 393.282 146.125 391.187ZM79.4788 417.458L138.977 424.322C140.097 424.452 140.886 425.586 140.739 426.855C140.592 428.125 139.564 429.049 138.444 428.92L78.9462 422.056C77.826 421.927 77.0371 420.793 77.1842 419.523C77.3312 418.254 78.3586 417.329 79.4788 417.458ZM58.5706 19.3788C57.7983 26.0469 54.6539 32.1646 49.8292 36.3862C45.0046 40.6076 38.8947 42.5871 32.844 41.8891C26.7933 41.1911 21.2971 37.8727 17.5647 32.6641C13.8324 27.4553 12.1694 20.783 12.9418 14.1149C12.9418 14.1149 25.3416 21.1188 35.7562 16.7468C46.1709 12.3749 58.5706 19.3788 58.5706 19.3788ZM64.2228 37.3544C62.689 39.8844 60.9287 42.1391 59.0224 43.9927C57.8618 44.8764 56.8758 45.7169 55.9612 46.4965L55.9612 46.4965C51.1671 50.5831 48.3376 52.9949 32.6299 51.1828C16.241 49.2921 14.4136 46.8338 9.9642 40.8483C9.33561 40.0026 8.65469 39.0866 7.87298 38.0919C1.55806 30.0558 2.03296 22.7532 3.09228 13.6077L9.61069 14.3597C8.10178 27.3867 12.9808 34.2914 12.9808 34.2914C12.9808 34.2914 17.0435 43.1766 33.3395 45.0566C49.6355 46.9366 54.6354 39.0968 54.6354 39.0968C54.6354 39.0968 61.3082 30.4187 62.5509 19.6905L69.3834 20.4787C70.2571 20.3157 71.156 20.2567 72.0591 20.3069C74.3355 20.4336 76.5178 21.2479 78.282 22.629C80.0464 24.01 81.2984 25.8842 81.8524 27.9732C82.4064 30.0622 82.2329 32.2547 81.3575 34.2251C80.482 36.1956 78.9514 37.839 76.993 38.9113C75.0345 39.9836 72.7525 40.4277 70.4859 40.1777C68.2193 39.9277 66.0887 38.9967 64.4106 37.5233C64.3473 37.4676 64.2847 37.4113 64.2228 37.3544ZM68.9584 26.0726C69.8176 25.6039 70.8088 25.3822 71.8109 25.438C72.9147 25.4994 73.9727 25.8942 74.8282 26.5639C75.6837 27.2335 76.2908 28.1422 76.5594 29.1551C76.828 30.168 76.7438 31.2311 76.3194 32.1865C75.8948 33.1419 75.1527 33.9387 74.2032 34.4586C73.2536 34.9787 72.1471 35.1939 71.0481 35.0727C69.949 34.9515 68.916 34.5002 68.1024 33.7857C67.5789 33.3261 67.1642 32.7734 66.8801 32.1648C67.7138 30.2126 68.4153 28.1681 68.9584 26.0726ZM2.31225 52.3445L61.8101 59.2084C62.9303 59.3376 63.7192 60.4716 63.5721 61.7413C63.4251 63.0109 62.3977 63.9354 61.2775 63.8061L1.77969 56.9422C0.659474 56.813 -0.129426 55.679 0.0176349 54.4094C0.164696 53.1397 1.19203 52.2152 2.31225 52.3445ZM1002.83 397.806C1002.06 402.619 999.58 406.956 995.945 409.865C992.31 412.773 987.814 414.014 983.447 413.314C979.08 412.615 975.199 410.032 972.659 406.134C970.118 402.237 969.126 397.343 969.9 392.531C969.9 392.531 978.67 398.008 986.366 395.169C994.061 392.33 1002.83 397.806 1002.83 397.806ZM1006.36 411.027C1005.16 412.813 1003.81 414.392 1002.37 415.676C1001.5 416.28 1000.76 416.858 1000.07 417.395L1000.07 417.395C996.46 420.206 994.33 421.865 982.994 420.049C971.166 418.155 969.919 416.313 966.883 411.829C966.454 411.195 965.989 410.509 965.454 409.762C961.131 403.731 961.709 398.449 962.771 391.848L967.476 392.602C965.963 402.004 969.281 407.169 969.281 407.169C969.281 407.169 971.944 413.744 983.705 415.628C995.466 417.512 999.344 411.984 999.344 411.984C999.344 411.984 1004.46 405.902 1005.71 398.159L1010.64 398.949C1011.28 398.859 1011.93 398.845 1012.59 398.91C1014.23 399.075 1015.79 399.735 1017.03 400.793C1018.26 401.852 1019.11 403.251 1019.44 404.784C1019.78 406.317 1019.58 407.902 1018.89 409.304C1018.19 410.705 1017.02 411.848 1015.57 412.564C1014.11 413.279 1012.44 413.528 1010.81 413.275C1009.17 413.021 1007.66 412.278 1006.49 411.155C1006.44 411.113 1006.4 411.07 1006.36 411.027ZM1010.15 402.994C1010.79 402.681 1011.52 402.552 1012.24 402.624C1013.04 402.704 1013.8 403.024 1014.39 403.538C1014.99 404.051 1015.4 404.729 1015.57 405.473C1015.73 406.216 1015.63 406.984 1015.3 407.664C1014.96 408.343 1014.39 408.898 1013.69 409.245C1012.98 409.592 1012.17 409.712 1011.38 409.589C1010.59 409.466 1009.85 409.106 1009.28 408.562C1008.92 408.212 1008.64 407.797 1008.45 407.347C1009.12 405.957 1009.69 404.497 1010.15 402.994ZM960.963 419.924L1003.9 426.803C1004.71 426.932 1005.25 427.78 1005.1 428.697C1004.95 429.613 1004.18 430.251 1003.37 430.121L960.43 423.242C959.621 423.113 959.085 422.265 959.233 421.349C959.38 420.432 960.155 419.795 960.963 419.924ZM1474.34 211.582C1472.01 216.273 1468.08 219.934 1463.42 221.759C1458.76 223.584 1453.75 223.424 1449.49 221.314C1445.23 219.204 1442.08 215.317 1440.72 210.509C1439.36 205.7 1439.91 200.363 1442.24 195.672C1442.24 195.672 1449.49 204.087 1458.29 203.627C1467.1 203.167 1474.34 211.582 1474.34 211.582ZM1473.73 226.27C1471.93 227.722 1470.04 228.912 1468.15 229.77C1467.06 230.112 1466.12 230.469 1465.24 230.8L1465.24 230.8C1460.63 232.534 1457.92 233.557 1446.87 228.08C1435.34 222.365 1434.65 220.078 1432.97 214.51L1432.97 214.51L1432.97 214.51C1432.73 213.723 1432.47 212.871 1432.16 211.934C1429.66 204.368 1431.94 199.133 1435.15 192.699L1439.73 194.972C1435.17 204.136 1436.92 210.493 1436.92 210.493C1436.92 210.493 1437.55 218.088 1449.01 223.77C1460.48 229.453 1466.23 225.018 1466.23 225.018C1466.23 225.018 1473.42 220.409 1477.18 212.862L1481.99 215.244C1482.67 215.355 1483.35 215.549 1484 215.824C1485.63 216.518 1487.02 217.692 1487.95 219.172C1488.88 220.651 1489.3 222.358 1489.15 224.037C1489.01 225.717 1488.3 227.281 1487.13 228.496C1485.97 229.712 1484.41 230.514 1482.69 230.784C1480.97 231.054 1479.17 230.778 1477.57 229.996C1475.98 229.214 1474.66 227.968 1473.82 226.443C1473.79 226.386 1473.76 226.328 1473.73 226.27ZM1480.19 219.238C1480.95 219.121 1481.73 219.22 1482.45 219.525C1483.25 219.862 1483.92 220.431 1484.37 221.149C1484.82 221.866 1485.03 222.693 1484.95 223.508C1484.88 224.322 1484.54 225.08 1483.98 225.67C1483.41 226.259 1482.65 226.648 1481.82 226.779C1480.98 226.91 1480.12 226.776 1479.34 226.397C1478.57 226.018 1477.93 225.413 1477.52 224.674C1477.26 224.199 1477.1 223.683 1477.05 223.162C1478.18 221.949 1479.24 220.633 1480.19 219.238ZM1424.3 220.929L1466.16 241.675C1466.95 242.066 1467.23 243.107 1466.78 244C1466.34 244.893 1465.34 245.3 1464.55 244.91L1422.7 224.163C1421.91 223.773 1421.63 222.732 1422.07 221.839C1422.52 220.946 1423.52 220.538 1424.3 220.929ZM1318.3 74.8504C1319.22 80.0052 1318.26 85.2827 1315.61 89.5221C1312.96 93.7613 1308.84 96.6151 1304.16 97.4555C1299.49 98.2959 1294.63 97.0541 1290.67 94.0033C1286.7 90.9525 1283.95 86.3426 1283.02 81.1878C1283.02 81.1878 1293.87 83.6288 1300.66 78.0191C1307.45 72.4093 1318.3 74.8504 1318.3 74.8504ZM1326.58 87.0058C1326.01 89.2409 1325.2 91.3213 1324.19 93.1349C1323.53 94.0563 1322.98 94.9061 1322.47 95.6943C1319.82 99.8259 1318.25 102.264 1306.1 104.446C1293.43 106.722 1291.51 105.297 1286.84 101.827C1286.18 101.337 1285.46 100.806 1284.65 100.239C1278.12 95.6576 1276.82 90.0957 1275.55 83.0257L1280.59 82.1204C1282.4 92.191 1287.61 96.2506 1287.61 96.2506C1287.61 96.2506 1292.65 101.973 1305.25 99.71C1317.85 97.4467 1319.81 90.4652 1319.81 90.4652C1319.81 90.4652 1322.83 82.4809 1321.34 74.1874L1326.62 73.2384C1327.24 72.92 1327.89 72.6736 1328.58 72.5078C1330.31 72.0901 1332.12 72.2073 1333.75 72.8418C1335.38 73.4764 1336.74 74.5945 1337.63 76.0303C1338.51 77.4661 1338.88 79.1429 1338.67 80.8118C1338.46 82.4808 1337.69 84.0529 1336.47 85.2946C1335.25 86.5364 1333.65 87.3818 1331.9 87.7052C1330.15 88.0286 1328.34 87.8127 1326.76 87.0897C1326.7 87.0624 1326.64 87.0344 1326.58 87.0058ZM1327.57 77.5126C1328.1 76.9691 1328.79 76.5804 1329.55 76.3965C1330.39 76.194 1331.27 76.2508 1332.06 76.5585C1332.85 76.8662 1333.51 77.4083 1333.94 78.1045C1334.37 78.8006 1334.55 79.6137 1334.45 80.4229C1334.35 81.2321 1333.97 81.9944 1333.38 82.5964C1332.79 83.1986 1332.01 83.6085 1331.16 83.7653C1330.31 83.9221 1329.44 83.8174 1328.67 83.4669C1328.18 83.2414 1327.74 82.9218 1327.39 82.5311C1327.57 80.8852 1327.64 79.2001 1327.57 77.5126ZM1283.72 112.137L1329.72 103.873C1330.58 103.718 1331.43 104.387 1331.6 105.369C1331.78 106.35 1331.22 107.272 1330.36 107.428L1284.36 115.692C1283.5 115.847 1282.65 115.178 1282.47 114.196C1282.3 113.215 1282.85 112.293 1283.72 112.137ZM1375.88 385.331C1375.67 390.564 1373.57 395.507 1370.07 399.071C1366.56 402.636 1361.92 404.53 1357.17 404.337C1352.42 404.144 1347.95 401.88 1344.74 398.044C1341.54 394.207 1339.85 389.111 1340.07 383.878C1340.07 383.878 1350.12 388.609 1357.97 384.604C1365.82 380.599 1375.88 385.331 1375.88 385.331ZM1381.32 398.991C1380.28 401.048 1379.04 402.905 1377.66 404.458C1376.81 405.213 1376.09 405.924 1375.42 406.583C1371.93 410.041 1369.87 412.081 1357.54 411.581C1344.68 411.059 1343.12 409.252 1339.3 404.852C1338.77 404.231 1338.18 403.557 1337.52 402.828C1332.14 396.941 1332.08 391.231 1332.37 384.054L1337.49 384.261C1337.07 394.485 1341.27 399.575 1341.27 399.575C1341.27 399.575 1344.95 406.254 1357.74 406.773C1370.53 407.292 1373.96 400.902 1373.96 400.902C1373.96 400.902 1378.65 393.763 1378.99 385.343L1384.36 385.561C1385.03 385.383 1385.72 385.285 1386.43 385.272C1388.21 385.239 1389.95 385.746 1391.41 386.718C1392.86 387.691 1393.94 389.077 1394.49 390.67C1395.05 392.264 1395.04 393.98 1394.47 395.564C1393.91 397.148 1392.81 398.515 1391.35 399.463C1389.89 400.411 1388.14 400.888 1386.36 400.825C1384.58 400.762 1382.87 400.161 1381.48 399.112C1381.43 399.072 1381.37 399.032 1381.32 398.991ZM1384.35 389.938C1384.99 389.524 1385.75 389.294 1386.53 389.279C1387.4 389.263 1388.24 389.509 1388.95 389.98C1389.65 390.452 1390.18 391.124 1390.44 391.896C1390.71 392.669 1390.71 393.501 1390.43 394.269C1390.16 395.037 1389.63 395.7 1388.92 396.16C1388.21 396.619 1387.36 396.851 1386.5 396.82C1385.64 396.79 1384.81 396.498 1384.13 395.989C1383.7 395.662 1383.34 395.256 1383.09 394.799C1383.62 393.232 1384.05 391.6 1384.35 389.938ZM1334.02 414.241L1380.72 416.136C1381.59 416.172 1382.27 417.008 1382.23 418.005C1382.19 419.001 1381.45 419.78 1380.57 419.744L1333.87 417.849C1332.99 417.814 1332.31 416.977 1332.35 415.981C1332.39 414.984 1333.14 414.205 1334.02 414.241ZM667.447 375.896C666.064 383.458 662.011 390.213 656.181 394.676C650.351 399.139 643.221 400.944 636.359 399.694C629.497 398.444 623.466 394.241 619.592 388.011C615.718 381.779 614.319 374.031 615.702 366.469C615.702 366.469 629.345 375.399 641.574 371.182C653.803 366.965 667.447 375.896 667.447 375.896ZM672.556 396.859C670.613 399.635 668.433 402.08 666.115 404.056C664.722 404.979 663.533 405.865 662.429 406.688L662.429 406.688C656.644 410.999 653.23 413.543 635.417 410.298C616.831 406.912 614.928 403.967 610.293 396.794L610.293 396.794C609.638 395.781 608.928 394.683 608.11 393.488C601.497 383.833 602.588 375.524 604.485 365.153L611.877 366.499C609.175 381.272 614.232 389.527 614.232 389.527C614.232 389.527 618.207 399.984 636.687 403.351C655.168 406.718 661.47 398.133 661.47 398.133C661.47 398.133 669.746 388.716 671.971 376.55L679.72 377.961C680.73 377.84 681.762 377.84 682.79 377.965C685.382 378.28 687.815 379.374 689.727 381.084C691.639 382.794 692.929 385.029 693.405 387.457C693.882 389.886 693.519 392.378 692.37 394.564C691.222 396.751 689.35 398.514 687.031 399.593C684.713 400.672 682.072 401.009 679.501 400.554C676.929 400.098 674.565 398.875 672.758 397.066C672.69 396.998 672.622 396.929 672.556 396.859ZM678.814 384.321C679.831 383.85 680.98 383.671 682.121 383.81C683.378 383.962 684.557 384.493 685.485 385.322C686.412 386.151 687.038 387.235 687.268 388.412C687.499 389.59 687.323 390.798 686.767 391.858C686.21 392.918 685.302 393.773 684.178 394.296C683.054 394.82 681.773 394.983 680.526 394.762C679.28 394.541 678.133 393.948 677.257 393.071C676.693 392.507 676.261 391.844 675.982 391.128C677.081 388.959 678.036 386.675 678.814 384.321ZM600.686 409.359L668.158 421.651C669.428 421.882 670.245 423.237 669.981 424.677C669.718 426.117 668.475 427.096 667.204 426.865L599.732 414.573C598.462 414.341 597.645 412.986 597.909 411.547C598.172 410.107 599.415 409.127 600.686 409.359Z" fill="#2F2105"/>
</g>
</svg>
