<svg width="16" height="10" viewBox="0 0 16 10" fill="none" xmlns="http://www.w3.org/2000/svg">
<path d="M13.3599 0.48877C13.3599 2.43325 12.7082 4.39899 11.7307 5.67304C10.4273 7.00581 10.4273 7.82044 6.6872 7.82044C2.94713 7.82044 2.93267 7.20624 1.50293 5.67304C0.0731961 4.13984 0 2.59617 0 0.651695H1.30341C1.30341 3.42144 2.42395 4.75202 2.42395 4.75202C2.42395 4.75202 3.42868 6.51791 6.6872 6.51791C9.94571 6.51791 10.7531 4.75202 10.7531 4.75202C10.7531 4.75202 11.8715 2.76973 11.8715 0.48877H13.3599Z" fill="#F9D9AA"/>
<path d="M11.8804 3.10449C12.0127 3.53771 12.2811 3.91674 12.646 4.18528C13.0108 4.45381 13.4524 4.59758 13.9054 4.59517C14.3584 4.59276 14.7985 4.44433 15.1605 4.17195C15.5224 3.89957 15.7868 3.51771 15.9145 3.0831C16.0422 2.64848 16.0264 2.18427 15.8693 1.75939C15.7123 1.3345 15.4224 0.971593 15.0427 0.724536C14.663 0.477482 14.2138 0.359452 13.7617 0.387967C13.3096 0.416485 12.8787 0.590031 12.5331 0.882841L13.2343 1.71048C13.4019 1.5685 13.6108 1.48435 13.83 1.47052C14.0492 1.4567 14.267 1.51393 14.4511 1.63372C14.6352 1.75351 14.7758 1.92947 14.8519 2.13549C14.9281 2.3415 14.9358 2.56658 14.8738 2.77731C14.8119 2.98804 14.6837 3.17319 14.5082 3.30525C14.3327 3.43735 14.1193 3.5093 13.8997 3.51047C13.68 3.51164 13.4659 3.44194 13.289 3.31173C13.1121 3.18152 12.9819 2.99775 12.9178 2.78769L11.8804 3.10449Z" fill="#F9D9AA"/>
<path d="M11.0789 0.519718C11.0789 1.93746 10.5983 3.29713 9.74277 4.29965C8.88725 5.30213 7.72689 5.86533 6.517 5.86533C5.30712 5.86533 4.14676 5.30213 3.29123 4.29965C2.43571 3.29713 1.95508 1.93746 1.95508 0.519718C1.95508 0.519718 4.56189 1.68908 6.517 0.519718C8.47211 -0.649647 11.0789 0.519718 11.0789 0.519718Z" fill="#FF912B"/>
<path d="M12.6284 8.798H0.731387C0.507391 8.798 0.325806 9.01684 0.325806 9.28678C0.325806 9.55673 0.507391 9.77556 0.731387 9.77556H12.6284C12.8524 9.77556 13.034 9.55673 13.034 9.28678C13.034 9.01684 12.8524 8.798 12.6284 8.798Z" fill="#F9D9AA"/>
</svg>
